<svg xmlns="http://www.w3.org/2000/svg" width="611.772" height="170.282" viewBox="0 0 611.772 170.282">
  <g id="Group_44" data-name="Group 44" transform="translate(-1256.26 -272.249)">
    <circle id="Ellipse_21" data-name="Ellipse 21" cx="3.827" cy="3.827" r="3.827" transform="translate(1256.26 434.878)" fill="#fff"/>
    <path id="Path_9" data-name="Path 9" d="M130,619.257l45.978-33.564,14.164-22.533h20.6l9.013,10.945,19.958-33.478,34.766-18.671,94.64,31.547,32.834,32.191L433.5,488.477l34.766-16.1,27.04-16.1,19.314,16.1h39.916l70.819,16.1,63.737-8.37,45.067-23.821" transform="translate(1130.087 -180.074)" fill="none" stroke="#00dcff" stroke-width="5"/>
    <path id="Path_10" data-name="Path 10" d="M129.5,610.169l46.217-23.833,27.04-22.533,37.985-10.945,32.834-30.9h29.615l65.025,30.9h45.067l81.764-96.571,63.737,32.834,173.828-32.834" transform="translate(1130.348 -180.074)" fill="none" stroke="#f2a900" stroke-width="5"/>
    <circle id="Ellipse_22" data-name="Ellipse 22" cx="3.827" cy="3.827" r="3.827" transform="translate(1316.529 380.35)" fill="#fff"/>
    <circle id="Ellipse_23" data-name="Ellipse 23" cx="3.827" cy="3.827" r="3.827" transform="translate(1346.185 389.916)" fill="#fff"/>
    <circle id="Ellipse_24" data-name="Ellipse 24" cx="3.827" cy="3.827" r="3.827" transform="translate(1366.274 357.39)" fill="#fff"/>
    <circle id="Ellipse_25" data-name="Ellipse 25" cx="3.827" cy="3.827" r="3.827" transform="translate(1400.713 338.736)" fill="#fff"/>
    <circle id="Ellipse_26" data-name="Ellipse 26" cx="3.827" cy="3.827" r="3.827" transform="translate(1527.946 401.874)" fill="#fff"/>
    <circle id="Ellipse_27" data-name="Ellipse 27" cx="3.827" cy="3.827" r="3.827" transform="translate(1560.95 305.731)" fill="#fff"/>
    <circle id="Ellipse_28" data-name="Ellipse 28" cx="3.827" cy="3.827" r="3.827" transform="translate(1621.219 272.249)" fill="#fff"/>
    <circle id="Ellipse_29" data-name="Ellipse 29" cx="3.827" cy="3.827" r="3.827" transform="translate(1637.96 289.469)" fill="#fff"/>
    <circle id="Ellipse_30" data-name="Ellipse 30" cx="3.827" cy="3.827" r="3.827" transform="translate(1749.408 305.253)" fill="#fff"/>
    <circle id="Ellipse_31" data-name="Ellipse 31" cx="3.827" cy="3.827" r="3.827" transform="translate(1815.417 296.165)" fill="#fff"/>
    <circle id="Ellipse_32" data-name="Ellipse 32" cx="3.827" cy="3.827" r="3.827" transform="translate(1860.379 272.249)" fill="#fff"/>
  </g>
</svg>
